<svg width="15" height="13" viewBox="0 0 15 13" fill="none" xmlns="http://www.w3.org/2000/svg">
    <path d="M4.52941 5.05386H4.53647M7.35294 5.05386H7.36M10.1765 5.05386H10.1835M5.23529 9.10772H2.41176C2.03734 9.10772 1.67825 8.96535 1.4135 8.71193C1.14874 8.45852 1 8.11481 1 7.75643V2.35129C1 1.9929 1.14874 1.6492 1.4135 1.39578C1.67825 1.14237 2.03734 1 2.41176 1H12.2941C12.6685 1 13.0276 1.14237 13.2924 1.39578C13.5571 1.6492 13.7059 1.9929 13.7059 2.35129V7.75643C13.7059 8.11481 13.5571 8.45852 13.2924 8.71193C13.0276 8.96535 12.6685 9.10772 12.2941 9.10772H8.76471L5.23529 12.4859V9.10772Z" stroke="#4B5563" stroke-linecap="round" stroke-linejoin="round"/>
    <rect x="3.82373" y="4.37842" width="7.05882" height="1.35129" fill="white"/>
</svg>
