<svg width="15" height="13" viewBox="0 0 15 13" fill="none" xmlns="http://www.w3.org/2000/svg">
    <path d="M6.80347 1.44426C7.01108 0.851913 7.91281 0.851913 8.11974 1.44426L9.17095 4.45039C9.21619 4.57933 9.30413 4.69169 9.42221 4.77139C9.54029 4.8511 9.68245 4.89407 9.82839 4.89417H13.2298C13.9004 4.89417 14.1786 5.69169 13.6367 6.05829L10.8851 7.91573C10.7669 7.99559 10.679 8.10816 10.6338 8.23733C10.5887 8.3665 10.5887 8.50563 10.6339 8.63478L11.6844 11.6409C11.8921 12.2339 11.162 12.7266 10.6201 12.36L7.86852 10.5025C7.75026 10.4226 7.60781 10.3796 7.4616 10.3796C7.3154 10.3796 7.17294 10.4226 7.05468 10.5025L4.30312 12.36C3.76125 12.7266 3.03115 12.2333 3.23876 11.6409L4.28928 8.63478C4.33446 8.50563 4.33448 8.3665 4.28936 8.23733C4.24423 8.10816 4.15627 7.99559 4.03807 7.91573L1.28651 6.05829C0.743951 5.69169 1.02354 4.89417 1.69343 4.89417H5.09413C5.24018 4.8942 5.3825 4.85129 5.50072 4.77158C5.61893 4.69187 5.70698 4.57944 5.75226 4.45039L6.80347 1.44426V1.44426Z" stroke="#4B5563" stroke-linecap="round" stroke-linejoin="round"/>
</svg>
