<?xml version="1.0" encoding="utf-8"?>
<!-- Generator: Adobe Illustrator 26.5.0, SVG Export Plug-In . SVG Version: 6.00 Build 0)  -->
<svg version="1.1" id="레이어_1" xmlns="http://www.w3.org/2000/svg" xmlns:xlink="http://www.w3.org/1999/xlink" x="0px"
	 y="0px" viewBox="0 0 114 113" style="enable-background:new 0 0 114 113;" xml:space="preserve">
<style type="text/css">
	.st0{fill:#606060;}
	.st1{fill:#FFFFFF;}
</style>
<g>
	<path class="st0" d="M56.5,8.5C29.8,8.5,8,30.3,8,57c0,11.2,3.8,21.5,10.2,29.7C22.6,71.4,38.2,60,56.8,60
		c18.3,0,33.8,11.1,38.4,26.2C101.3,78.1,105,68,105,57C105,30.3,83.2,8.5,56.5,8.5z M56.8,55.2c-8.7,0-15.8-7.1-15.8-15.8
		c0-8.7,7.1-15.8,15.8-15.8c8.7,0,15.8,7.1,15.8,15.8C72.6,48.1,65.5,55.2,56.8,55.2z"/>
	<path class="st0" d="M8,57C8,30.3,29.8,8.5,56.5,8.5S105,30.3,105,57c0,10.9-3.7,21.1-9.8,29.2c0.5,1.6,0.9,3.3,1.1,5
		C104.2,82,109,70.1,109,57c0-29-23.5-52.5-52.5-52.5S4,28,4,57c0,13.3,5,25.5,13.2,34.8c0.2-1.7,0.6-3.4,1-5.1
		C11.8,78.5,8,68.2,8,57z"/>
	<path class="st0" d="M56.5,109.5c15.9,0,30.2-7.1,39.8-18.3c-0.2-1.7-0.6-3.4-1.1-5c-8.9,11.7-22.9,19.3-38.7,19.3
		c-15.6,0-29.4-7.4-38.3-18.8c-0.5,1.6-0.8,3.3-1,5.1C26.8,102.7,40.8,109.5,56.5,109.5z"/>
</g>
<g>
	<g>
		<path class="st1" d="M56.8,60c-18.6,0-34.1,11.4-38.6,26.7c8.9,11.4,22.7,18.8,38.3,18.8c15.8,0,29.8-7.6,38.7-19.3
			C90.6,71.1,75.1,60,56.8,60z"/>
	</g>
	<g>
		<circle class="st1" cx="56.8" cy="37.4" r="18.6"/>
	</g>
</g>
</svg>
