<svg width="24" height="24" viewBox="0 0 24 24" fill="none" xmlns="http://www.w3.org/2000/svg">
<path d="M8.40022 15.6005L15.6002 8.40052M8.95412 8.94987L8.93997 8.93558M15.0646 15.1232L15.0505 15.1089M11.4991 3.63854L9.57469 2.57341C9.15197 2.33943 8.62758 2.52481 8.42842 2.97863L7.52176 5.04458C7.40376 5.31345 7.16256 5.50112 6.88181 5.5425L4.7246 5.86041C4.25074 5.93025 3.93098 6.40166 4.02564 6.89089L4.45655 9.11805C4.51264 9.4079 4.42327 9.70758 4.21946 9.91315L2.65342 11.4927C2.30942 11.8397 2.31644 12.417 2.66875 12.7548L4.27265 14.2925C4.48139 14.4926 4.578 14.7898 4.52898 15.0811L4.15229 17.3189C4.06954 17.8104 4.40065 18.2733 4.87605 18.3306L7.0403 18.5914C7.32196 18.6253 7.56764 18.8066 7.69213 19.0722L8.64867 21.1136C8.85879 21.562 9.38751 21.7335 9.80442 21.4884L11.7023 20.3728C11.9493 20.2276 12.2503 20.2236 12.5007 20.3622L14.4251 21.4274C14.8478 21.6613 15.3722 21.476 15.5714 21.0221L16.478 18.9562C16.596 18.6873 16.8372 18.4997 17.118 18.4583L19.2752 18.1404C19.7491 18.0705 20.0688 17.5991 19.9742 17.1099L19.5432 14.8827C19.4872 14.5929 19.5765 14.2932 19.7803 14.0876L21.3464 12.5081C21.6904 12.1611 21.6834 11.5837 21.331 11.246L19.7272 9.7083C19.5184 9.50819 19.4218 9.21097 19.4708 8.91973L19.8475 6.6819C19.9303 6.19033 19.5992 5.72751 19.1238 5.67022L16.9595 5.40938C16.6778 5.37543 16.4322 5.1942 16.3077 4.92853L15.3511 2.88718C15.141 2.43878 14.6123 2.26731 14.1954 2.51237L12.2975 3.628C12.0505 3.77319 11.7495 3.77716 11.4991 3.63854Z" stroke="#00A2CF" stroke-width="2" stroke-linecap="round"/>
</svg>
