<svg width="21" height="21" viewBox="0 0 21 21" fill="none" xmlns="http://www.w3.org/2000/svg">
<g clip-path="url(#clip0_282_1039)">
<path d="M14.8206 2.61577C15.0495 2.3868 15.3214 2.20517 15.6205 2.08125C15.9197 1.95733 16.2403 1.89355 16.5642 1.89355C16.888 1.89355 17.2086 1.95733 17.5078 2.08125C17.807 2.20517 18.0788 2.3868 18.3078 2.61577C18.5367 2.84474 18.7184 3.11657 18.8423 3.41574C18.9662 3.7149 19.03 4.03555 19.03 4.35936C19.03 4.68318 18.9662 5.00382 18.8423 5.30299C18.7184 5.60215 18.5367 5.87398 18.3078 6.10295L6.53852 17.8722L1.74365 19.1799L3.05134 14.385L14.8206 2.61577Z" stroke="#757575" stroke-width="2" stroke-linecap="round" stroke-linejoin="round"/>
</g>
<defs>
<clipPath id="clip0_282_1039">
<rect width="20.9231" height="20.9231" fill="white"/>
</clipPath>
</defs>
</svg>
