<?xml version="1.0" encoding="utf-8"?>
<!-- Generator: Adobe Illustrator 26.5.0, SVG Export Plug-In . SVG Version: 6.00 Build 0)  -->
<svg version="1.1" id="레이어_1" xmlns="http://www.w3.org/2000/svg" xmlns:xlink="http://www.w3.org/1999/xlink" x="0px"
	 y="0px" viewBox="0 0 39 39" style="enable-background:new 0 0 39 39;" xml:space="preserve">
<style type="text/css">
	.st0{fill:#00A2CF;}
</style>
<g>
	<path class="st0" d="M30.1,3.9V33l-7.8-7.2l-0.1-0.1l-0.1-0.1c-0.7-0.5-1.6-0.8-2.5-0.8c-0.8,0-1.6,0.2-2.3,0.7L17,25.6l-0.2,0.2
		L9,32.9v-29H30.1 M31.8,0.9H7.3C6.6,0.9,6,1.5,6,2.2v34.6c0,0.8,0.6,1.3,1.3,1.3c0.2,0,0.5-0.1,0.7-0.2L18.8,28
		c0.2-0.1,0.5-0.2,0.8-0.2c0.3,0,0.5,0.1,0.7,0.2L31,37.9c0.2,0.2,0.5,0.2,0.8,0.2c0.7,0,1.3-0.5,1.3-1.3V2.2
		C33.1,1.5,32.5,0.9,31.8,0.9L31.8,0.9z"/>
</g>
</svg>
